<?xml version="1.0" encoding="UTF-8"?>
<svg xmlns="http://www.w3.org/2000/svg" xmlns:xlink="http://www.w3.org/1999/xlink" width="464.84pt" height="78.39pt" viewBox="0 0 464.84 78.39" version="1.1">
<defs>
<clipPath id="clip1">
  <path d="M 452 28 L 464.839844 28 L 464.839844 42 L 452 42 Z M 452 28 "/>
</clipPath>
<clipPath id="clip2">
  <path d="M 0 0 L 79 0 L 79 78.390625 L 0 78.390625 Z M 0 0 "/>
</clipPath>
<clipPath id="clip3">
  <path d="M 0 65 L 79 65 L 79 78.390625 L 0 78.390625 Z M 0 65 "/>
</clipPath>
</defs>
<g id="surface1">
<path style=" stroke:none;fill-rule:nonzero;fill:rgb(44.699097%,47.799683%,49.798584%);fill-opacity:1;" d="M 300.257813 25.675781 C 301.242188 19.761719 298.578125 18.308594 293.867188 18.308594 L 288.179688 18.308594 C 284.574219 18.308594 283.675781 18.574219 283.085938 21.96875 L 280.574219 36.289063 L 289.207031 36.289063 C 291.6875 36.289063 293.167969 35.5 294.136719 34.4375 C 294.625 33.902344 294.984375 33.292969 295.277344 32.65625 C 295.535156 32.117188 295.738281 31.5625 295.921875 31.042969 C 295.945313 30.988281 296.03125 30.773438 296.054688 30.714844 L 298.402344 30.671875 L 295.671875 46.308594 L 293.292969 46.308594 C 293.976563 42.199219 292.804688 40.042969 288.605469 40.042969 L 279.921875 40.042969 L 277.105469 56.164063 C 276.414063 60.105469 277.203125 60.199219 280.796875 60.199219 L 288.894531 60.199219 C 292.933594 60.199219 295.15625 58.695313 296.574219 53.152344 L 298.929688 53.136719 L 296.8125 63.953125 L 267.390625 63.953125 L 274.265625 24.605469 C 274.910156 20.960938 275.140625 19.25 274.476563 18.277344 C 273.855469 17.375 272.421875 17.078125 269.503906 16.578125 C 269.359375 16.554688 268.867188 16.457031 268.714844 16.425781 L 269.105469 14.554688 L 304.355469 14.554688 L 302.632813 25.675781 L 300.257813 25.675781 "/>
<path style=" stroke:none;fill-rule:nonzero;fill:rgb(44.699097%,47.799683%,49.798584%);fill-opacity:1;" d="M 314.800781 42.039063 C 315.636719 42.578125 316.542969 43.125 317.441406 43.691406 C 321.035156 45.996094 324.617188 48.871094 323.621094 54.554688 C 322.355469 61.820313 315.835938 64.753906 308.582031 64.753906 C 306.351563 64.753906 304.460938 64.539063 302.933594 64.261719 C 301.476563 64 300.023438 63.605469 299.226563 63.382813 L 300.363281 57.300781 C 302.546875 59.015625 305.496094 61.222656 309.433594 61.222656 C 313.960938 61.222656 315.960938 58.9375 316.398438 56.476563 C 316.699219 54.761719 315.980469 53.441406 314.714844 52.261719 C 314.078125 51.671875 313.316406 51.117188 312.480469 50.5625 C 311.640625 50.015625 310.734375 49.472656 309.835938 48.910156 C 306.25 46.652344 302.613281 43.96875 303.515625 38.828125 C 304.449219 33.488281 308.886719 28.921875 317.558594 28.921875 C 319.429688 28.921875 321.132813 29.160156 322.515625 29.433594 C 323.613281 29.65625 324.511719 29.894531 325.132813 30.054688 C 325.238281 30.089844 325.570313 30.179688 325.667969 30.207031 L 324.667969 36.082031 C 324.148438 35.683594 323.804688 35.394531 323.363281 35.070313 C 322.882813 34.710938 322.296875 34.300781 321.609375 33.910156 C 320.238281 33.136719 318.496094 32.457031 316.488281 32.457031 C 314.175781 32.457031 311.371094 33.320313 310.84375 36.328125 C 310.554688 37.988281 311.285156 39.238281 312.550781 40.386719 C 313.1875 40.960938 313.960938 41.496094 314.800781 42.039063 "/>
<path style=" stroke:none;fill-rule:nonzero;fill:rgb(44.699097%,47.799683%,49.798584%);fill-opacity:1;" d="M 334.5625 29.722656 L 335.550781 24.039063 L 344.367188 17.25 L 342.1875 29.722656 L 351.738281 29.722656 L 351.167969 32.964844 L 341.621094 32.964844 L 337.9375 54.046875 C 337.042969 59.140625 337.023438 61.222656 342.464844 61.222656 C 343.308594 61.222656 344.398438 61.121094 345.277344 60.921875 L 344.742188 64.15625 C 342.910156 64.480469 341.300781 64.753906 339.710938 64.753906 C 332.691406 64.753906 328.632813 63.632813 330.121094 55.15625 L 334 32.964844 L 328.308594 32.964844 L 328.875 29.722656 L 334.5625 29.722656 "/>
<path style=" stroke:none;fill-rule:nonzero;fill:rgb(44.699097%,47.799683%,49.798584%);fill-opacity:1;" d="M 367.765625 44.824219 L 368.496094 41.230469 C 369.324219 36.519531 370.113281 31.726563 365.761719 31.726563 C 361.285156 31.726563 360.171875 35.46875 359.585938 38.625 C 359.570313 38.726563 359.527344 39.027344 359.507813 39.128906 L 350.453125 39.160156 C 352.238281 34.007813 355.621094 28.921875 366.117188 28.921875 C 376.621094 28.921875 377.3125 34.394531 376.042969 41.648438 L 372.148438 63.953125 L 364.527344 63.953125 L 365.222656 59.964844 C 364.746094 60.441406 364.441406 60.738281 364.09375 61.054688 C 363.492188 61.605469 362.769531 62.203125 361.925781 62.75 C 360.222656 63.851563 358.015625 64.753906 355.167969 64.753906 C 349.40625 64.753906 345.933594 60.597656 346.707031 56.179688 C 348.503906 45.917969 362.875 44.988281 367.765625 44.824219 M 355.269531 54.996094 C 354.683594 58.316406 355.945313 60.496094 358.488281 60.496094 C 362.605469 60.496094 365.789063 56.726563 366.648438 51.804688 L 367.351563 47.769531 C 364.195313 47.882813 356.402344 48.496094 355.269531 54.996094 M 355.269531 54.996094 C 354.683594 58.316406 355.945313 60.496094 358.488281 60.496094 C 362.605469 60.496094 365.789063 56.726563 366.648438 51.804688 L 367.351563 47.769531 C 364.195313 47.882813 356.402344 48.496094 355.269531 54.996094 M 367.765625 44.824219 L 368.496094 41.230469 C 369.324219 36.519531 370.113281 31.726563 365.761719 31.726563 C 361.285156 31.726563 360.171875 35.46875 359.585938 38.625 C 359.570313 38.726563 359.527344 39.027344 359.507813 39.128906 L 350.453125 39.160156 C 352.238281 34.007813 355.621094 28.921875 366.117188 28.921875 C 376.621094 28.921875 377.3125 34.394531 376.042969 41.648438 L 372.148438 63.953125 L 364.527344 63.953125 L 365.222656 59.964844 C 364.746094 60.441406 364.441406 60.738281 364.09375 61.054688 C 363.492188 61.605469 362.769531 62.203125 361.925781 62.75 C 360.222656 63.851563 358.015625 64.753906 355.167969 64.753906 C 349.40625 64.753906 345.933594 60.597656 346.707031 56.179688 C 348.503906 45.917969 362.875 44.988281 367.765625 44.824219 "/>
<path style=" stroke:none;fill-rule:nonzero;fill:rgb(44.699097%,47.799683%,49.798584%);fill-opacity:1;" d="M 402.039063 44.660156 C 402.769531 40.511719 403.226563 33.183594 396.519531 33.183594 C 389.96875 33.183594 387.855469 41.386719 386.953125 46.542969 C 385.953125 52.253906 385.136719 60.496094 391.757813 60.496094 C 398.597656 60.496094 400.835938 51.558594 401.519531 47.648438 Z M 415.28125 12.558594 L 406.292969 63.953125 L 398.671875 63.953125 L 399.34375 60.117188 C 398.734375 60.617188 398.292969 60.972656 397.8125 61.34375 C 397.09375 61.882813 396.28125 62.441406 395.371094 62.949219 C 393.546875 63.964844 391.324219 64.753906 388.667969 64.753906 C 379.007813 64.753906 376.84375 56.628906 378.433594 47.503906 C 380.058594 38.230469 385.410156 28.921875 395.160156 28.921875 C 400.949219 28.921875 402.839844 31.773438 403.847656 34.15625 C 403.972656 33.835938 404.105469 33.132813 404.265625 32.199219 L 404.9375 28.21875 C 405.410156 25.386719 405.894531 22.640625 405.894531 22.640625 C 406.746094 17.746094 405.945313 16.511719 402.246094 16.226563 C 402.125 16.21875 401.632813 16.171875 401.5 16.164063 L 401.863281 14.429688 L 415.28125 12.558594 "/>
<path style=" stroke:none;fill-rule:nonzero;fill:rgb(44.699097%,47.799683%,49.798584%);fill-opacity:1;" d="M 431.445313 28.921875 C 442.15625 28.921875 446.09375 36.34375 444.246094 46.898438 C 442.15625 58.847656 436.125 64.753906 425.242188 64.753906 C 413.351563 64.753906 410.632813 57.105469 412.425781 46.847656 C 414.558594 34.609375 420.703125 28.921875 431.445313 28.921875 M 435.90625 46.847656 C 437.09375 40.035156 437.851563 31.726563 431.011719 31.726563 C 423.957031 31.726563 421.898438 40.433594 420.769531 46.898438 C 419.691406 53.066406 418.6875 61.953125 425.671875 61.953125 C 432.65625 61.953125 434.621094 54.1875 435.90625 46.847656 M 435.90625 46.847656 C 437.09375 40.035156 437.851563 31.726563 431.011719 31.726563 C 423.957031 31.726563 421.898438 40.433594 420.769531 46.898438 C 419.691406 53.066406 418.6875 61.953125 425.671875 61.953125 C 432.65625 61.953125 434.621094 54.1875 435.90625 46.847656 M 431.445313 28.921875 C 442.15625 28.921875 446.09375 36.34375 444.246094 46.898438 C 442.15625 58.847656 436.125 64.753906 425.242188 64.753906 C 413.351563 64.753906 410.632813 57.105469 412.425781 46.847656 C 414.558594 34.609375 420.703125 28.921875 431.445313 28.921875 "/>
<path style=" stroke:none;fill-rule:nonzero;fill:rgb(44.699097%,47.799683%,49.798584%);fill-opacity:1;" d="M 114.363281 35.992188 L 119.058594 35.992188 C 125.285156 35.992188 130.355469 33.976563 131.597656 26.867188 C 132.714844 20.453125 129.515625 18.308594 122.929688 18.308594 C 118.570313 18.308594 117.414063 18.523438 116.8125 21.96875 Z M 140 26.5625 C 138.785156 33.53125 133.417969 36.40625 129.628906 37.652344 C 134.4375 38.753906 139.855469 41.585938 138.246094 50.773438 C 137.09375 57.367188 132.765625 60.667969 127.992188 62.3125 C 125.613281 63.132813 123.117188 63.546875 120.84375 63.746094 C 118.574219 63.953125 116.519531 63.953125 115.019531 63.953125 L 101.125 63.953125 L 108.003906 24.605469 C 108.640625 20.960938 108.890625 19.246094 108.234375 18.277344 C 107.589844 17.320313 105.769531 16.921875 102.515625 16.378906 L 102.835938 14.554688 L 124.628906 14.554688 C 132.980469 14.554688 141.757813 16.519531 140 26.5625 M 110.621094 57.402344 C 110.136719 60.15625 112.804688 60.199219 116.9375 60.199219 C 124.878906 60.199219 128.863281 56.683594 130.148438 49.328125 C 131.382813 42.265625 126.585938 39.75 120.203125 39.75 L 113.707031 39.75 L 110.621094 57.402344 "/>
<path style=" stroke:none;fill-rule:nonzero;fill:rgb(44.699097%,47.799683%,49.798584%);fill-opacity:1;" d="M 159.925781 44.824219 L 160.65625 41.230469 C 161.480469 36.519531 162.273438 31.726563 157.914063 31.726563 C 153.5 31.726563 152.351563 35.378906 151.765625 38.511719 C 151.738281 38.648438 151.695313 38.996094 151.671875 39.132813 L 142.609375 39.160156 C 144.398438 34.007813 147.773438 28.921875 158.273438 28.921875 C 168.785156 28.921875 169.472656 34.394531 168.203125 41.648438 L 164.304688 63.953125 L 156.679688 63.953125 L 157.382813 59.964844 C 156.898438 60.441406 156.59375 60.738281 156.257813 61.054688 C 155.648438 61.601563 154.925781 62.203125 154.082031 62.75 C 152.382813 63.851563 150.175781 64.753906 147.324219 64.753906 C 141.5625 64.753906 138.09375 60.597656 138.867188 56.179688 C 140.660156 45.917969 155.035156 44.988281 159.925781 44.824219 M 147.425781 54.996094 C 146.84375 58.316406 148.097656 60.496094 150.644531 60.496094 C 154.757813 60.496094 157.945313 56.726563 158.804688 51.804688 L 159.511719 47.769531 C 156.351563 47.882813 148.558594 48.496094 147.425781 54.996094 M 147.425781 54.996094 C 146.84375 58.316406 148.097656 60.496094 150.644531 60.496094 C 154.757813 60.496094 157.945313 56.726563 158.804688 51.804688 L 159.511719 47.769531 C 156.351563 47.882813 148.558594 48.496094 147.425781 54.996094 M 159.925781 44.824219 L 160.65625 41.230469 C 161.480469 36.519531 162.273438 31.726563 157.914063 31.726563 C 153.5 31.726563 152.351563 35.378906 151.765625 38.511719 C 151.738281 38.648438 151.695313 38.996094 151.671875 39.132813 L 142.609375 39.160156 C 144.398438 34.007813 147.773438 28.921875 158.273438 28.921875 C 168.785156 28.921875 169.472656 34.394531 168.203125 41.648438 L 164.304688 63.953125 L 156.679688 63.953125 L 157.382813 59.964844 C 156.898438 60.441406 156.59375 60.738281 156.257813 61.054688 C 155.648438 61.601563 154.925781 62.203125 154.082031 62.75 C 152.382813 63.851563 150.175781 64.753906 147.324219 64.753906 C 141.5625 64.753906 138.09375 60.597656 138.867188 56.179688 C 140.660156 45.917969 155.035156 44.988281 159.925781 44.824219 "/>
<path style=" stroke:none;fill-rule:nonzero;fill:rgb(44.699097%,47.799683%,49.798584%);fill-opacity:1;" d="M 194.699219 44.878906 C 195.722656 38.996094 196.523438 34.207031 191.871094 34.207031 C 187.179688 34.207031 181.871094 40.878906 180.972656 46.03125 L 177.84375 63.953125 L 170.21875 63.953125 L 174.519531 39.339844 C 175.371094 34.492188 174.5 33.265625 170.441406 33.058594 C 170.332031 33.054688 169.886719 33 169.773438 33 L 170.097656 31.273438 L 183.96875 28.886719 L 182.398438 37.890625 C 184.753906 34.425781 189.542969 28.921875 196.09375 28.921875 C 202.886719 28.921875 204.265625 33.75 203.277344 39.386719 L 198.988281 63.953125 L 191.363281 63.953125 L 194.699219 44.878906 "/>
<path style=" stroke:none;fill-rule:nonzero;fill:rgb(44.699097%,47.799683%,49.798584%);fill-opacity:1;" d="M 226.183594 39.234375 C 226.75 35.871094 226.6875 31.726563 222.441406 31.726563 C 217.640625 31.726563 215.613281 36.945313 214.382813 43.984375 C 212.503906 54.75 216.421875 60.496094 222.894531 60.496094 C 225.042969 60.496094 227.921875 60.097656 229.773438 59.558594 C 229.835938 59.539063 230.0625 59.460938 230.125 59.441406 L 229.539063 63.011719 C 228.035156 63.523438 226.980469 63.917969 225.4375 64.234375 C 223.867188 64.558594 221.886719 64.753906 218.855469 64.753906 C 208.515625 64.753906 203.6875 57.417969 205.625 46.339844 C 207.371094 36.300781 212.773438 28.921875 223.3125 28.921875 C 231.222656 28.921875 235.933594 32.816406 235.21875 38.59375 C 235.203125 38.726563 235.15625 39.082031 235.132813 39.21875 L 226.183594 39.234375 "/>
<path style=" stroke:none;fill-rule:nonzero;fill:rgb(44.699097%,47.799683%,49.798584%);fill-opacity:1;" d="M 253.179688 28.921875 C 263.890625 28.921875 267.828125 36.34375 265.984375 46.898438 C 263.890625 58.847656 257.859375 64.753906 246.976563 64.753906 C 235.089844 64.753906 232.371094 57.105469 234.160156 46.847656 C 236.300781 34.609375 242.445313 28.921875 253.179688 28.921875 M 257.644531 46.847656 C 258.832031 40.035156 259.589844 31.726563 252.746094 31.726563 C 245.695313 31.726563 243.632813 40.433594 242.503906 46.898438 C 241.425781 53.066406 240.421875 61.953125 247.40625 61.953125 C 254.390625 61.953125 256.359375 54.1875 257.644531 46.847656 M 257.644531 46.847656 C 258.832031 40.035156 259.589844 31.726563 252.746094 31.726563 C 245.695313 31.726563 243.632813 40.433594 242.503906 46.898438 C 241.425781 53.066406 240.421875 61.953125 247.40625 61.953125 C 254.390625 61.953125 256.359375 54.1875 257.644531 46.847656 M 253.179688 28.921875 C 263.890625 28.921875 267.828125 36.34375 265.984375 46.898438 C 263.890625 58.847656 257.859375 64.753906 246.976563 64.753906 C 235.089844 64.753906 232.371094 57.105469 234.160156 46.847656 C 236.300781 34.609375 242.445313 28.921875 253.179688 28.921875 "/>
<g clip-path="url(#clip1)" clip-rule="nonzero">
<path style="fill:none;stroke-width:0.79;stroke-linecap:butt;stroke-linejoin:miter;stroke:rgb(44.699097%,47.799683%,49.798584%);stroke-opacity:1;stroke-miterlimit:3.864;" d="M 4527.265625 436.907812 C 4527.265625 470.267187 4554.296875 497.298437 4587.65625 497.298437 C 4620.976563 497.298437 4648.007813 470.267187 4648.007813 436.907812 C 4648.007813 403.5875 4620.976563 376.55625 4587.65625 376.55625 C 4554.296875 376.55625 4527.265625 403.5875 4527.265625 436.907812 Z M 4527.265625 436.907812 " transform="matrix(0.1,0,0,-0.1,0,78.39)"/>
</g>
<path style=" stroke:none;fill-rule:nonzero;fill:rgb(41.88385%,45.657349%,48.587036%);fill-opacity:1;" d="M 456.40625 38.929688 L 457.757813 38.929688 L 457.757813 35.164063 L 458.257813 35.164063 C 459.570313 35.164063 459.816406 35.945313 460 36.671875 L 460.476563 38.929688 L 461.835938 38.929688 L 461.386719 36.734375 C 461.175781 35.746094 461.003906 34.894531 459.730469 34.6875 L 459.730469 34.664063 C 460.453125 34.527344 461.542969 34.050781 461.542969 32.691406 C 461.542969 30.664063 459.679688 30.46875 458.257813 30.46875 L 456.40625 30.46875 L 456.40625 38.929688 "/>
<path style=" stroke:none;fill-rule:nonzero;fill:rgb(100%,100%,100%);fill-opacity:1;" d="M 457.757813 31.277344 L 458.257813 31.277344 C 459.535156 31.277344 460.191406 31.613281 460.191406 32.75 C 460.191406 34.085938 459.117188 34.355469 458.257813 34.355469 L 457.757813 34.355469 L 457.757813 31.277344 "/>
<path style=" stroke:none;fill-rule:nonzero;fill:rgb(100%,100%,100%);fill-opacity:1;" d="M 457.757813 31.277344 L 458.257813 31.277344 C 459.535156 31.277344 460.191406 31.613281 460.191406 32.75 C 460.191406 34.085938 459.117188 34.355469 458.257813 34.355469 L 457.757813 34.355469 L 457.757813 31.277344 "/>
<g clip-path="url(#clip2)" clip-rule="nonzero">
<path style=" stroke:none;fill-rule:nonzero;fill:rgb(80.799866%,12.199402%,24.699402%);fill-opacity:1;" d="M 0 0.00390625 L 78.371094 0.00390625 L 78.371094 78.390625 L 0 78.390625 L 0 0.00390625 "/>
</g>
<path style=" stroke:none;fill-rule:nonzero;fill:rgb(95.292664%,60.391235%,12.156677%);fill-opacity:1;" d="M 78.371094 41.3125 L 45.144531 13.347656 C 45.140625 13.347656 45.136719 13.351563 45.132813 13.355469 L 45.132813 65.332031 L 78.371094 65.339844 L 78.371094 41.3125 "/>
<path style=" stroke:none;fill-rule:nonzero;fill:rgb(100%,100%,100%);fill-opacity:1;" d="M 45.144531 20.820313 L 45.140625 13.34375 C 42.828125 15.933594 37.007813 20.359375 29.84375 21.390625 L 29.84375 27.175781 L 24.238281 29.617188 L 24.238281 34.601563 L 0 43.960938 L 0 65.339844 L 50.886719 65.339844 L 50.886719 18.417969 L 45.144531 20.820313 "/>
<path style=" stroke:none;fill-rule:nonzero;fill:rgb(80.799866%,12.199402%,24.699402%);fill-opacity:1;" d="M 29.855469 32.472656 L 25.246094 34.214844 C 24.71875 34.417969 24.292969 35.007813 24.292969 35.53125 L 24.296875 39.101563 C 24.257813 39.667969 23.890625 40.160156 23.320313 40.328125 L 0 49.316406 L 0 54.777344 L 23.394531 45.671875 C 23.917969 45.46875 24.34375 44.878906 24.34375 44.351563 L 24.34375 40.8125 C 24.378906 40.25 24.742188 39.777344 25.246094 39.589844 L 29.855469 37.839844 L 29.855469 32.472656 "/>
<path style=" stroke:none;fill-rule:nonzero;fill:rgb(80.799866%,12.199402%,24.699402%);fill-opacity:1;" d="M 29.855469 42.964844 L 25.246094 44.707031 C 24.71875 44.910156 24.292969 45.5 24.292969 46.027344 L 24.296875 49.597656 C 24.257813 50.15625 23.890625 50.652344 23.320313 50.824219 L 0 59.960938 L 0 65.328125 L 23.394531 56.164063 C 23.917969 55.960938 24.34375 55.367188 24.34375 54.84375 L 24.34375 51.304688 C 24.378906 50.746094 24.742188 50.269531 25.246094 50.082031 L 29.855469 48.332031 L 29.855469 42.964844 "/>
<g clip-path="url(#clip3)" clip-rule="nonzero">
<path style=" stroke:none;fill-rule:nonzero;fill:rgb(4.699707%,30.198669%,59.599304%);fill-opacity:1;" d="M 0 65.328125 L 78.371094 65.328125 L 78.371094 78.390625 L 0 78.390625 L 0 65.328125 "/>
</g>
<path style=" stroke:none;fill-rule:nonzero;fill:rgb(100%,100%,100%);fill-opacity:1;" d="M 23.144531 67.796875 L 21.917969 67.933594 L 21.410156 70.597656 C 21.003906 70.425781 20.808594 70.378906 20.515625 70.378906 C 19.101563 70.378906 17.878906 72.035156 17.835938 73.992188 C 17.820313 74.871094 18.15625 75.410156 18.765625 75.410156 C 19.117188 75.410156 19.640625 75.1875 20.0625 74.851563 C 20.296875 74.664063 20.496094 74.460938 20.648438 74.238281 C 20.714844 74.15625 20.796875 74.027344 20.902344 73.84375 L 20.660156 75.238281 L 21.800781 75.238281 Z M 21.246094 71.519531 L 21.144531 72.105469 C 21.066406 72.601563 20.65625 73.265625 20.160156 73.742188 C 19.847656 74.035156 19.519531 74.238281 19.347656 74.238281 C 19.175781 74.238281 19.078125 74.054688 19.085938 73.753906 C 19.09375 73.257813 19.339844 72.488281 19.597656 72.042969 C 19.882813 71.578125 20.304688 71.265625 20.636719 71.265625 C 20.863281 71.265625 21.058594 71.34375 21.246094 71.519531 "/>
<path style=" stroke:none;fill-rule:nonzero;fill:rgb(100%,100%,100%);fill-opacity:1;" d="M 27.523438 71.378906 C 27.539063 70.730469 27.09375 70.394531 26.210938 70.394531 C 24.644531 70.394531 23.53125 71.75 23.484375 73.699219 C 23.460938 74.8125 23.894531 75.367188 24.792969 75.367188 C 25.199219 75.367188 25.671875 75.25 26.074219 75.035156 C 26.21875 74.964844 26.390625 74.851563 26.609375 74.699219 C 26.875 74.511719 26.996094 74.429688 27.285156 74.195313 L 26.835938 73.476563 C 26.179688 73.964844 26.015625 74.074219 25.742188 74.1875 C 25.535156 74.265625 25.292969 74.316406 25.160156 74.316406 C 25 74.316406 24.800781 74.21875 24.710938 74.074219 C 24.652344 73.984375 24.625 73.882813 24.589844 73.648438 L 26.65625 72.566406 C 27.25 72.253906 27.511719 71.902344 27.523438 71.378906 M 26.355469 71.648438 C 26.351563 71.742188 26.339844 71.800781 26.285156 71.929688 L 24.679688 72.824219 C 24.898438 72.15625 25.027344 71.882813 25.273438 71.601563 C 25.488281 71.34375 25.726563 71.214844 25.960938 71.214844 C 26.222656 71.214844 26.359375 71.367188 26.355469 71.648438 "/>
<path style=" stroke:none;fill-rule:nonzero;fill:rgb(100%,100%,100%);fill-opacity:1;" d="M 31.632813 70.671875 C 31.183594 70.488281 30.761719 70.394531 30.265625 70.394531 C 29.144531 70.394531 28.484375 70.902344 28.464844 71.769531 C 28.457031 72.050781 28.546875 72.296875 28.710938 72.519531 C 28.820313 72.648438 28.949219 72.792969 29.097656 72.933594 C 29.148438 72.972656 29.335938 73.136719 29.652344 73.429688 C 29.898438 73.640625 29.984375 73.789063 29.980469 73.972656 C 29.976563 74.21875 29.75 74.378906 29.375 74.378906 C 29.082031 74.378906 28.78125 74.308594 28.28125 74.125 L 27.921875 75.105469 C 28.316406 75.214844 28.46875 75.25 28.851563 75.308594 C 29.113281 75.347656 29.414063 75.367188 29.609375 75.367188 C 30.585938 75.367188 31.246094 74.8125 31.269531 73.953125 C 31.277344 73.457031 31.074219 73.144531 30.386719 72.558594 C 29.851563 72.113281 29.792969 72.050781 29.707031 71.902344 C 29.664063 71.839844 29.648438 71.769531 29.648438 71.699219 C 29.652344 71.476563 29.878906 71.34375 30.273438 71.34375 C 30.597656 71.34375 30.808594 71.40625 31.269531 71.648438 L 31.632813 70.671875 "/>
<path style=" stroke:none;fill-rule:nonzero;fill:rgb(100%,100%,100%);fill-opacity:1;" d="M 37.546875 67.796875 L 36.316406 67.933594 L 35.8125 70.597656 C 35.402344 70.425781 35.210938 70.378906 34.917969 70.378906 C 33.503906 70.378906 32.28125 72.035156 32.234375 73.992188 C 32.214844 74.871094 32.558594 75.410156 33.164063 75.410156 C 33.519531 75.410156 34.035156 75.1875 34.460938 74.851563 C 34.699219 74.664063 34.894531 74.460938 35.050781 74.238281 C 35.113281 74.15625 35.199219 74.027344 35.304688 73.84375 L 35.058594 75.238281 L 36.199219 75.238281 Z M 35.648438 71.519531 L 35.546875 72.105469 C 35.460938 72.601563 35.050781 73.265625 34.554688 73.742188 C 34.246094 74.035156 33.917969 74.238281 33.746094 74.238281 C 33.578125 74.238281 33.480469 74.054688 33.484375 73.753906 C 33.5 73.257813 33.738281 72.488281 34 72.042969 C 34.285156 71.578125 34.703125 71.265625 35.039063 71.265625 C 35.261719 71.265625 35.460938 71.34375 35.648438 71.519531 "/>
<path style=" stroke:none;fill-rule:nonzero;fill:rgb(100%,100%,100%);fill-opacity:1;" d="M 41.921875 71.378906 C 41.9375 70.730469 41.488281 70.394531 40.609375 70.394531 C 39.042969 70.394531 37.929688 71.75 37.886719 73.699219 C 37.863281 74.8125 38.292969 75.367188 39.191406 75.367188 C 39.597656 75.367188 40.074219 75.25 40.472656 75.035156 C 40.617188 74.964844 40.792969 74.851563 41.007813 74.699219 C 41.273438 74.511719 41.398438 74.429688 41.683594 74.195313 L 41.238281 73.476563 C 40.578125 73.964844 40.414063 74.074219 40.140625 74.1875 C 39.9375 74.265625 39.691406 74.316406 39.558594 74.316406 C 39.398438 74.316406 39.199219 74.21875 39.109375 74.074219 C 39.050781 73.984375 39.023438 73.882813 38.988281 73.648438 L 41.054688 72.566406 C 41.648438 72.253906 41.910156 71.902344 41.921875 71.378906 M 40.753906 71.648438 C 40.75 71.742188 40.738281 71.800781 40.6875 71.929688 L 39.082031 72.824219 C 39.296875 72.15625 39.421875 71.882813 39.671875 71.601563 C 39.894531 71.34375 40.125 71.214844 40.359375 71.214844 C 40.621094 71.214844 40.761719 71.367188 40.753906 71.648438 "/>
<path style=" stroke:none;fill-rule:nonzero;fill:rgb(100%,100%,100%);fill-opacity:1;" d="M 48.671875 70.34375 L 48.097656 70.34375 L 45.648438 71.234375 L 45.921875 72.1875 L 47.21875 71.679688 L 46.578125 75.238281 L 47.78125 75.238281 L 48.671875 70.34375 "/>
<path style=" stroke:none;fill-rule:nonzero;fill:rgb(100%,100%,100%);fill-opacity:1;" d="M 54.554688 69.710938 C 54.574219 68.929688 53.9375 68.457031 52.863281 68.457031 C 51.519531 68.457031 50.566406 69.082031 50.542969 69.980469 C 50.535156 70.386719 50.726563 70.839844 51.042969 71.175781 L 51.46875 71.617188 L 50.605469 72.1875 C 50.054688 72.546875 49.609375 73.277344 49.59375 73.863281 C 49.574219 74.835938 50.238281 75.347656 51.503906 75.347656 C 53.121094 75.347656 54.25 74.621094 54.273438 73.550781 C 54.285156 73.085938 54.023438 72.558594 53.589844 72.1875 L 52.933594 71.617188 L 53.582031 71.175781 C 54.066406 70.839844 54.261719 70.628906 54.421875 70.273438 C 54.503906 70.09375 54.550781 69.890625 54.554688 69.710938 M 53.28125 69.953125 C 53.277344 70.210938 53.140625 70.457031 52.925781 70.597656 L 52.339844 70.984375 L 51.980469 70.535156 C 51.871094 70.394531 51.800781 70.203125 51.808594 70.023438 C 51.816406 69.628906 52.1875 69.335938 52.660156 69.335938 C 53.039063 69.335938 53.292969 69.589844 53.28125 69.953125 M 52.992188 73.441406 C 52.980469 73.992188 52.414063 74.480469 51.785156 74.480469 C 51.222656 74.480469 50.84375 74.15625 50.855469 73.679688 C 50.863281 73.292969 51.15625 72.832031 51.546875 72.566406 L 52.121094 72.1875 L 52.726563 72.761719 C 52.902344 72.933594 53 73.164063 52.992188 73.441406 "/>
<path style=" stroke:none;fill-rule:nonzero;fill:rgb(100%,100%,100%);fill-opacity:1;" d="M 58.980469 69.964844 L 55.925781 69.964844 L 55.3125 73.402344 L 55.949219 73.402344 C 56.242188 73.402344 56.652344 73.511719 56.863281 73.640625 C 57.066406 73.773438 57.179688 74.046875 57.171875 74.390625 C 57.148438 75.25 56.515625 75.957031 55.769531 75.957031 C 55.476563 75.957031 55.195313 75.886719 54.703125 75.683594 L 54.339844 76.632813 C 54.890625 76.847656 55.230469 76.917969 55.667969 76.917969 C 57.140625 76.917969 58.40625 75.695313 58.4375 74.242188 C 58.453125 73.53125 58.171875 72.976563 57.660156 72.734375 C 57.386719 72.601563 57.191406 72.558594 56.679688 72.511719 L 56.953125 70.984375 L 58.796875 70.984375 L 58.980469 69.964844 "/>
<path style=" stroke:none;fill-rule:nonzero;fill:rgb(100%,100%,100%);fill-opacity:1;" d="M 63.347656 69.964844 L 60.292969 69.964844 L 59.679688 73.402344 L 60.320313 73.402344 C 60.609375 73.402344 61.023438 73.511719 61.234375 73.640625 C 61.433594 73.773438 61.546875 74.046875 61.539063 74.390625 C 61.519531 75.25 60.886719 75.957031 60.140625 75.957031 C 59.84375 75.957031 59.5625 75.886719 59.074219 75.683594 L 58.707031 76.632813 C 59.257813 76.847656 59.597656 76.917969 60.035156 76.917969 C 61.511719 76.917969 62.773438 75.695313 62.804688 74.242188 C 62.820313 73.53125 62.539063 72.976563 62.03125 72.734375 C 61.753906 72.601563 61.558594 72.558594 61.046875 72.511719 L 61.320313 70.984375 L 63.164063 70.984375 L 63.347656 69.964844 "/>
</g>
</svg>
